<?xml version="1.0" encoding="utf-8"?>
<!-- Generator: Adobe Illustrator 19.0.0, SVG Export Plug-In . SVG Version: 6.00 Build 0)  -->
<svg version="1.1" id="Layer_1" xmlns="http://www.w3.org/2000/svg" xmlns:xlink="http://www.w3.org/1999/xlink" x="0px" y="0px"
	 viewBox="0 0 1100 300" style="enable-background:new 0 0 1100 300;" xml:space="preserve">
<style type="text/css">
	.st0{fill:#FFD440;}
	.st1{fill:#ED3538;}
	.st2{fill:#FFFFFF;}
	.st3{fill-rule:evenodd;clip-rule:evenodd;fill:#1C2855;}
	.st4{fill:#1C2855;}
</style>
<g id="XMLID_109_">
	<g id="XMLID_164_">
		<g id="XMLID_171_">
			<path id="XMLID_107_" class="st0" d="M252.8,152.6c-7.4,32.3-47.4,36.7-47.4,36.7c-0.8,0-1.6,0.1-2.6,0.3l0,0
				c-7.3,0.5-13.1,6.3-13.6,13.7l0,0c0,0.5-0.1,1.1-0.1,1.6l0,33.8h0v8.1c0,0.5-0.1,11.5-9.7,20.7c-4.2,4.1-9.5,6.9-15,8.8
				c-6.8,2.3-14,3.2-21.1,3.4c-2.3,0.1-4.6,0.1-6.9,0.1c-2.3,0-4.6,0-6.9-0.1c-7.1-0.2-14.4-1.1-21.1-3.4c-5.5-1.9-10.8-4.7-15-8.8
				c-9.5-9.2-9.7-20.2-9.7-20.7v-8.1h0l0-33.8c0-0.5,0-1.1-0.1-1.6l0,0c-0.5-7.3-6.3-13.2-13.6-13.7l0,0c-0.9-0.2-1.8-0.2-2.6-0.3
				c0,0-40.1-4.5-47.4-36.7C14,202.9,42.8,211.4,65,208.8c0.5,0,1,0,1.4,0c0.2,0,0.4,0,0.6,0c4.2,0,7.5,3.4,7.5,7.5
				c0,0.2,0,0.4,0,0.6c0,0.3,0,0.6,0,1v26.5l0,0v2.4c0,0.6,0,15.2,12.3,27.1c10.2,9.9,25.4,14.9,45.3,14.9c1.4,0,2.8,0,4.2-0.1
				c1.4,0,2.8,0.1,4.2,0.1c19.9,0,35.2-5,45.3-14.9c12.3-11.9,12.3-26.5,12.3-27.1v-2.4l0,0v-26.5c0-0.3,0-0.6,0-1
				c0-0.2,0-0.4,0-0.6c0-4.2,3.4-7.5,7.5-7.5c0.2,0,0.4,0,0.6,0c0.4,0,0.9,0,1.4,0C229.9,211.4,258.7,202.9,252.8,152.6z"/>
			<path id="XMLID_106_" class="st0" d="M217.9,145.2c-8.5,6.3-26.8,16.5-35.3,22.9c-1.6,1-2.9,2.2-4.1,3.6
				c-0.1,0.1-0.1,0.1-0.2,0.2c-0.2,0.2-0.4,0.5-0.5,0.7l0,0c-2,2.8-3.1,6.2-3.1,9.9c0,0.3,0,65.5,0,65.5c2.4,2.3,5.4,4.3,9.1,5.2
				l0-55.1c0-0.2,0-0.4,0-0.7c0-6,3.6-11.1,8.7-13.4c11.4-5,24.1-6.3,35.1-12.4c7.8-4.3,14.8-10.6,18.2-19
				c14.3-34.9-14.5-61.3-14.5-61.3C236.5,102.1,244.6,124.7,217.9,145.2z"/>
			<path id="XMLID_105_" class="st0" d="M209.1,99.1c-1,3.9-3,13.5-26.1,29.3c-6.7,4.3-11.4,9.2-14.8,14c-4.4,5.6-7.3,12.5-7.9,20
				c-0.2,1.4-0.2,2.2-0.2,2.3v62.6c4.5,3.5,6.3,5.2,9.1,14.6c0,0,0-63.5,0-63.5c0-0.4,0-0.8,0-1.3c0-0.3,0-0.5,0-0.8
				c0-6,3-11.2,7.7-14.3c8-6.5,24.1-16.6,28.7-20.3c6.5-5.2,13-11.1,17.3-18.3c13.8-21.7-4.5-49.3-18.6-57.6
				C212.7,81,210.1,95.2,209.1,99.1z"/>
			<path id="XMLID_104_" class="st0" d="M154.7,157.5c0-0.1,0-0.1,0-0.2c0.1-9.6,3.7-18.2,9.6-24.8c5.3-6.5,12.6-12.3,21.6-19.5
				c33.2-26.1,2.2-55.9-3.2-60.1c9.5,26.3-1.8,34.4-14.4,44.4c-1.4,1.1-2.9,2.4-4.4,3.8c-10.1,6.7-16.9,17.8-18.1,30.6
				c-0.1,1.2-0.2,2.4-0.2,3.6v87.4c3.8,0.7,6.6,1.2,9.1,3.2V157.5z"/>
			<path id="XMLID_103_" class="st0" d="M45.1,171.6c11,6.1,23.8,7.3,35.1,12.4c5.1,2.3,8.7,7.4,8.7,13.4c0,0.2,0,0.4,0,0.7l0,55.1
				c3.7-0.9,6.7-2.9,9.1-5.2c0,0,0-65.1,0-65.5c0-3.7-1.1-7.1-3.1-9.9l0,0c-0.2-0.2-0.4-0.5-0.5-0.7c-0.1-0.1-0.1-0.1-0.2-0.2
				c-1.2-1.4-2.5-2.6-4.1-3.6c-8.6-6.3-26.8-16.6-35.3-22.9c-26.7-20.5-18.6-43.1-13.4-54c0,0-28.8,26.5-14.5,61.3
				C30.3,161,37.2,167.3,45.1,171.6z"/>
			<path id="XMLID_102_" class="st0" d="M67.1,141.9c4.6,3.7,20.7,13.8,28.7,20.3c4.7,3,7.7,8.3,7.7,14.3c0,0.3,0,0.5,0,0.8
				c0,0.4,0,0.8,0,1.3c0,0,0,63.5,0,63.5c2.8-9.5,4.5-11.2,9.1-14.6v-62.6c0-0.1,0-0.9-0.2-2.3c-0.7-7.5-3.5-14.4-7.9-20
				c-3.3-4.8-8.1-9.7-14.8-14C66.5,112.6,64.5,103,63.5,99.1C62.5,95.2,60,81,68.4,66c-14.1,8.3-32.4,35.9-18.6,57.6
				C54.1,130.8,60.6,136.6,67.1,141.9z"/>
			<path id="XMLID_101_" class="st0" d="M86.7,113c9.1,7.3,16.3,13,21.6,19.5c5.9,6.6,9.5,15.3,9.6,24.8c0,0.1,0,0.1,0,0.2v68.3
				c2.5-2,5.3-2.4,9.1-3.2v-87.4c0-1.2-0.1-2.4-0.2-3.6c-1.2-12.8-8-23.9-18.1-30.6c-1.5-1.4-3-2.6-4.4-3.8
				c-12.6-10-23.8-18.1-14.4-44.4C84.5,57,53.5,86.9,86.7,113z"/>
		</g>
		<path id="XMLID_167_" class="st0" d="M145.6,99.1c0,2.1-4.2,3.8-9.3,3.8s-9.3-1.7-9.3-3.8s4.2-3.8,9.3-3.8S145.6,97,145.6,99.1z"
			/>
		<path id="XMLID_99_" class="st1" d="M147,72.8c1.1-12.7-8.5-22.6-10.7-25.7v0v0l0,0v0c-2.2,3.1-11.8,13-10.7,25.7
			c-1.8-0.5-8.5-2-8.5-2c3.3,2.9,5.8,6.5,8.1,10.2c2.6,4.1,4.3,8,11.1,8.8l0,0h0l0,0l0,0c6.8-0.8,8.5-4.7,11.1-8.8
			c2.3-3.7,4.8-7.3,8.1-10.2C155.5,70.8,148.8,72.3,147,72.8z"/>
		<path id="XMLID_98_" class="st2" d="M136.3,87.8c-6.6-0.4-5.7-5.3-11.7-11.2c0,0,4.1,0.6,5.2,0.9c-0.3-3.7,0.2-8.8,6.5-15.6l0,0
			c6.3,6.8,6.8,11.8,6.5,15.6c1.1-0.3,5.2-0.9,5.2-0.9C142,82.5,143,87.4,136.3,87.8z"/>
	</g>
	<g id="XMLID_120_">
		<path id="XMLID_97_" class="st3" d="M496,47.4c-1,0-2-0.1-2.9-0.1v25.5h0l0,153.4c5.6,0,14.1-0.8,19.2-2.6
			c6.8-2.4,15.2-9.6,14.9-19.3l-0.2-98.1c21.5,35.8,41.1,67.2,62.3,102.6c11.7,19.5,23.7,17.4,42.1,17.4c0-59.6,0-119.2,0-178.8
			c-5.6,0-14.1,0.8-19.2,2.6c-6.5,2.3-14.4,8.9-14.9,18c0,33.2,0.1,66.3,0.2,99.5c-21.5-35.8-41.1-67.2-62.3-102.6
			c-9.8-16.3-18.2-17.4-35.6-17.5C498.1,47.4,496.9,47.4,496,47.4z"/>
		<path id="XMLID_96_" class="st3" d="M911.5,47.2c11.2,0,22.5,0,33.7,0c0,18.2-13.6,31.7-31.8,32l-1.9,0v0.1
			c-9.9,0.1-27.4,0.1-37.2,0.1v36.7h54.2c0,17.6-12.9,30.8-30.2,31.8l-24,0c0,15.3,0,30.6,0,46c23.6,0,47.3,0,70.9,0
			c0,18.2-13.6,31.7-31.8,32c-25.9,0.3-51.8,0.2-77.7,0.2c0-59.6,0-119.2,0-178.7L911.5,47.2L911.5,47.2z"/>
		<path id="XMLID_95_" class="st3" d="M667.3,47.3c-1,0-2-0.1-2.9-0.1v25.5h0l0,153.4c5.6,0,14.1-0.8,19.2-2.6
			c6.8-2.4,15.2-9.6,14.9-19.3l-0.2-98.1c21.5,35.8,41.1,67.2,62.3,102.6c11.7,19.5,23.7,17.4,42.1,17.4c0-59.6,0-119.2,0-178.8
			c-5.6,0-14.1,0.8-19.2,2.6c-6.5,2.3-14.4,8.9-14.9,18c0,33.2,0.1,66.3,0.2,99.5c-21.5-35.8-41.1-67.2-62.3-102.6
			c-9.8-16.3-18.2-17.4-35.6-17.5C669.4,47.2,668.2,47.2,667.3,47.3z"/>
		<path id="XMLID_94_" class="st3" d="M391.6,226.4c-11.8,0-23.6-2.8-34.3-8.5c-28.2-14.9-34.1-40.3-34.2-69.7
			c-0.1-33.7-0.1-67.3-0.1-101c6.3,0,15.7,0.9,21.5,2.9c7.6,2.7,17,10.8,16.6,21.6l0.1,83.8c0.1,10.6,3.1,21.3,10.3,29.6
			c5.2,6,12.6,9,20,9c7.4,0,14.8-3,20-9c7.2-8.3,10.2-19.1,10.3-29.6l0.1-83.8c-0.4-10.9,9-19,16.6-21.6c5.7-2,15.2-2.9,21.5-2.9
			c0,33.7,0,67.3-0.1,101c-0.1,29.3-6,54.8-34.2,69.7C415.2,223.6,403.4,226.4,391.6,226.4z"/>
		<g id="XMLID_158_">
			<path id="XMLID_93_" class="st4" d="M1086.1,173.8c0-21.8-10.6-36.3-33.3-45.5l-26.6-10.8c-14.3-5.8-25.5-10.4-25.5-22.6
				c0-11.9,9.9-19.3,25.9-19.3c6.3,0,12.2,0.9,17.9,2.9c21.7,7.8,26.1,0.7,34.2-9.3l1.2-1.4c-14.1-13-33.7-20.6-53.2-20.6
				c-34.4,0-60.4,21.5-60.4,50c0,28,21.2,40.7,33.9,45.8l25.9,11c14.6,6.1,25.1,10.5,25.1,23.2c0,6.1-2.7,20.4-28.1,20.4
				c-7.6,0-16-1.1-24-5.5c-20.5-11.1-27.6-2.4-36.3,8.2l-2.4,2.9c16.6,14.6,38.9,22.9,61.6,22.9
				C1066,225.9,1086.1,198.9,1086.1,173.8z"/>
		</g>
		<path id="XMLID_121_" class="st3" d="M349,274.9c0,1.7-0.1,3.3-0.3,4.7c-0.2,1.4-0.7,2.9-1.5,4.4c-0.8,1.5-2.1,2.8-3.9,3.8
			c-1.8,1-4.2,1.5-7.2,1.5c-2.9,0-5.3-0.4-7.1-1.4c-1.8-0.9-3.1-2.1-4-3.5c-0.8-1.4-1.4-2.9-1.6-4.5c-0.2-1.5-0.3-3.3-0.3-5.2v-19.1
			h4.4v19c0,2,0.1,3.7,0.4,5.1c0.3,1.4,1,2.7,2.3,3.8c1.2,1.1,3.1,1.7,5.6,1.7c2.6,0,4.5-0.4,5.8-1.3c1.3-0.9,2.1-2.1,2.5-3.5
			c0.4-1.5,0.6-3.4,0.6-5.7v-19h4.4V274.9L349,274.9z M382.1,288.8h-4.5l-17.2-25.9h-0.1v25.9h-4.1v-33h4.5l17.2,25.9h0.1v-25.9h4.2
			V288.8L382.1,288.8z M394.3,288.8h-4.4v-33h4.4V288.8L394.3,288.8z M428.7,255.8l-12.9,33h-4.5l-12.8-33h4.7l8.6,24
			c0.6,1.5,1.2,3.3,1.7,5.4h0.1c0.5-1.7,1-3.5,1.7-5.4l8.9-24H428.7L428.7,255.8z M457.2,288.8h-24.6v-33h23.9v3.9h-19.5v10.1h18.3
			v3.9h-18.3v11.2h20.3V288.8L457.2,288.8z M492.2,288.8h-5.5c-3.3-5.2-5.3-8.4-6.1-9.6c-0.8-1.2-1.6-2.2-2.5-3
			c-0.9-0.8-1.7-1.4-2.5-1.6c-0.8-0.2-1.8-0.3-3.1-0.3h-5v14.6h-4.4v-33h14.6c2,0,3.7,0.1,5,0.4c1.4,0.3,2.5,0.8,3.6,1.6
			c1,0.8,1.8,1.9,2.3,3.1c0.6,1.2,0.8,2.6,0.8,3.9c0,2.5-0.8,4.5-2.4,6c-1.6,1.5-3.9,2.5-6.9,2.9v0.1c2.2,1,4.3,3,6.2,6L492.2,288.8
			L492.2,288.8z M467.5,270.3h9.4c1.9,0,3.4-0.2,4.5-0.5c1.1-0.3,2-1,2.6-1.9c0.7-0.9,1-2,1-3.1c0-1.5-0.5-2.8-1.6-3.8
			c-1.1-1.1-2.9-1.6-5.4-1.6h-10.4V270.3L467.5,270.3z M515.7,265.5c-0.2-2.1-0.9-3.7-2.3-4.7c-1.3-1.1-3.2-1.6-5.7-1.6
			c-2.3,0-4.1,0.4-5.5,1.3c-1.4,0.8-2.1,2.1-2.1,3.7c0,1.4,0.5,2.5,1.6,3.2c1.1,0.7,3.2,1.4,6.2,2.1c2.7,0.6,5,1.2,6.7,1.8
			c1.7,0.6,3.2,1.6,4.4,2.9c1.2,1.3,1.8,3.1,1.8,5.3c0,2.8-1.1,5.2-3.4,7.1c-2.3,1.9-5.2,2.8-8.8,2.8c-4.6,0-8.1-1-10.4-3.1
			c-2.3-2.1-3.5-4.8-3.7-8.1l4.1-0.4c0.2,2.6,1.2,4.6,3.1,5.8c1.8,1.2,4.1,1.8,6.7,1.8c2.5,0,4.4-0.5,5.9-1.5c1.5-1,2.3-2.4,2.3-4.1
			c0-1.8-0.8-3.1-2.4-3.9c-1.6-0.8-4.2-1.6-7.9-2.4c-3.7-0.8-6.4-1.9-8-3.4c-1.6-1.5-2.5-3.4-2.5-5.7c0-2.6,1-4.8,3.1-6.5
			c2.1-1.7,4.9-2.6,8.5-2.6c3.7,0,6.6,0.9,8.8,2.6c2.2,1.7,3.4,4.2,3.5,7.3L515.7,265.5L515.7,265.5z M531.8,288.8h-4.4v-33h4.4
			V288.8L531.8,288.8z M563,259.7h-10.9v29.1h-4.4v-29.1h-10.8v-3.9H563V259.7L563,259.7z M594.6,288.8h-4.9l-3.9-10H572l-3.6,10
			h-4.6l12.7-33h4.7L594.6,288.8L594.6,288.8z M584.5,275.3c-2.7-7.1-4.2-11.2-4.6-12.2c-0.3-1-0.7-2.3-1.2-3.9h-0.1
			c-0.4,2.2-1,4.3-1.7,6.2l-3.7,9.9H584.5L584.5,275.3z M617.5,265.5c-0.2-2.1-0.9-3.7-2.3-4.7c-1.3-1.1-3.3-1.6-5.7-1.6
			c-2.3,0-4.1,0.4-5.5,1.3c-1.4,0.8-2.1,2.1-2.1,3.7c0,1.4,0.5,2.5,1.6,3.2c1.1,0.7,3.2,1.4,6.2,2.1c2.7,0.6,5,1.2,6.7,1.8
			c1.7,0.6,3.2,1.6,4.4,2.9c1.2,1.3,1.8,3.1,1.8,5.3c0,2.8-1.1,5.2-3.4,7.1c-2.3,1.9-5.2,2.8-8.8,2.8c-4.6,0-8.1-1-10.4-3.1
			c-2.3-2.1-3.5-4.8-3.7-8.1l4.1-0.4c0.2,2.6,1.2,4.6,3.1,5.8c1.8,1.2,4.1,1.8,6.7,1.8c2.5,0,4.4-0.5,5.9-1.5c1.5-1,2.3-2.4,2.3-4.1
			c0-1.8-0.8-3.1-2.4-3.9c-1.6-0.8-4.2-1.6-7.9-2.4c-3.7-0.8-6.4-1.9-8-3.4c-1.6-1.5-2.5-3.4-2.5-5.7c0-2.6,1-4.8,3.1-6.5
			c2.1-1.7,4.9-2.6,8.5-2.6c3.7,0,6.6,0.9,8.8,2.6c2.2,1.7,3.4,4.2,3.5,7.3L617.5,265.5L617.5,265.5z M667.4,288.8h-4.5l-17.2-25.9
			h-0.1v25.9h-4.1v-33h4.5l17.2,25.9h0.1v-25.9h4.2V288.8L667.4,288.8z M699.2,288.8h-24.6v-33h23.9v3.9h-19.5v10.1h18.3v3.9h-18.3
			v11.2h20.3V288.8L699.2,288.8z M734.4,284.2c-4.2,3.5-8.7,5.2-13.6,5.2c-5.1,0-9.1-1.5-12.2-4.6c-3.1-3.1-4.6-7.2-4.6-12.3
			c0-3.1,0.6-6,1.9-8.7c1.3-2.7,3.1-4.8,5.6-6.3c2.5-1.5,5.5-2.2,9.1-2.2c3.7,0,6.7,0.8,8.9,2.4c2.2,1.6,3.8,4.1,4.5,7.3l-3.9,1.1
			c-0.6-2.4-1.7-4.2-3.3-5.3c-1.6-1.2-3.7-1.8-6.2-1.8c-4,0-7,1.2-9,3.6c-2,2.4-3,5.6-3,9.5c0,2.9,0.5,5.4,1.5,7.3
			c1,2,2.4,3.4,4.4,4.4c1.9,1,4,1.5,6.3,1.5c3.4,0,6.7-1.1,9.6-3.4v-6.1h-9.7V272h13.9V284.2L734.4,284.2z M765.5,288.8h-24.6v-33
			h23.9v3.9h-19.5v10.1h18.3v3.9h-18.3v11.2h20.3V288.8L765.5,288.8z M800.6,288.8h-5.5c-3.3-5.2-5.3-8.4-6.1-9.6
			c-0.8-1.2-1.6-2.2-2.5-3c-0.9-0.8-1.7-1.4-2.5-1.6c-0.8-0.2-1.8-0.3-3.1-0.3h-5v14.6h-4.4v-33h14.6c2,0,3.7,0.1,5,0.4
			c1.4,0.3,2.5,0.8,3.6,1.6c1,0.8,1.8,1.9,2.3,3.1c0.6,1.2,0.8,2.6,0.8,3.9c0,2.5-0.8,4.5-2.4,6c-1.6,1.5-3.9,2.5-6.9,2.9v0.1
			c2.2,1,4.3,3,6.2,6L800.6,288.8L800.6,288.8z M775.8,270.3h9.4c1.9,0,3.4-0.2,4.5-0.5c1.1-0.3,2-1,2.6-1.9c0.7-0.9,1-2,1-3.1
			c0-1.5-0.5-2.8-1.6-3.8c-1.1-1.1-2.9-1.6-5.4-1.6h-10.4V270.3L775.8,270.3z M809.5,288.8h-4.4v-33h4.4V288.8L809.5,288.8z
			 M849.5,265.5c-0.2-2.1-0.9-3.7-2.3-4.7c-1.3-1.1-3.2-1.6-5.7-1.6c-2.2,0-4.1,0.4-5.5,1.3c-1.4,0.8-2.1,2.1-2.1,3.7
			c0,1.4,0.5,2.5,1.6,3.2c1.1,0.7,3.2,1.4,6.2,2.1c2.7,0.6,5,1.2,6.7,1.8c1.7,0.6,3.2,1.6,4.4,2.9c1.2,1.3,1.8,3.1,1.8,5.3
			c0,2.8-1.1,5.2-3.4,7.1c-2.3,1.9-5.2,2.8-8.8,2.8c-4.6,0-8.1-1-10.4-3.1c-2.3-2.1-3.5-4.8-3.7-8.1l4.1-0.4
			c0.2,2.6,1.2,4.6,3.1,5.8c1.8,1.2,4.1,1.8,6.7,1.8c2.4,0,4.4-0.5,5.9-1.5c1.5-1,2.3-2.4,2.3-4.1c0-1.8-0.8-3.1-2.4-3.9
			c-1.6-0.8-4.2-1.6-7.9-2.4c-3.7-0.8-6.4-1.9-8-3.4c-1.6-1.5-2.4-3.4-2.4-5.7c0-2.6,1-4.8,3.1-6.5c2.1-1.7,4.9-2.6,8.5-2.6
			c3.7,0,6.6,0.9,8.8,2.6c2.2,1.7,3.4,4.2,3.5,7.3L849.5,265.5L849.5,265.5z M885.2,288.8h-24.6v-33h23.9v3.9H865v10.1h18.3v3.9H865
			v11.2h20.3V288.8L885.2,288.8z M922.4,288.8h-4.1v-27.6h-0.1l-9.5,27.6h-3.9l-9.4-28.1h-0.1v28.1H891v-33h6.5l7.8,23.4
			c0.9,2.6,1.4,4.2,1.5,4.9h0.1c0.4-1.3,1-3,1.8-5.3l7.9-23h5.8V288.8L922.4,288.8z M956.6,288.8h-4.9l-3.9-10H934l-3.6,10h-4.6
			l12.7-33h4.7L956.6,288.8L956.6,288.8z M946.4,275.3c-2.7-7.1-4.2-11.2-4.6-12.2c-0.3-1-0.7-2.3-1.2-3.9h-0.1
			c-0.4,2.2-1,4.3-1.7,6.2l-3.7,9.9H946.4L946.4,275.3z M989.1,288.8h-5.5c-3.3-5.2-5.3-8.4-6.1-9.6c-0.8-1.2-1.6-2.2-2.5-3
			c-0.9-0.8-1.7-1.4-2.5-1.6c-0.8-0.2-1.8-0.3-3.1-0.3h-5v14.6H960v-33h14.6c2,0,3.7,0.1,5,0.4c1.4,0.3,2.5,0.8,3.6,1.6
			c1,0.8,1.8,1.9,2.4,3.1c0.6,1.2,0.8,2.6,0.8,3.9c0,2.5-0.8,4.5-2.4,6c-1.6,1.5-3.9,2.5-6.9,2.9v0.1c2.2,1,4.3,3,6.2,6L989.1,288.8
			L989.1,288.8z M964.4,270.3h9.4c1.9,0,3.4-0.2,4.5-0.5c1.1-0.3,2-1,2.6-1.9c0.7-0.9,1-2,1-3.1c0-1.5-0.5-2.8-1.6-3.8
			c-1.1-1.1-2.9-1.6-5.4-1.6h-10.4V270.3L964.4,270.3z M1020.3,288.8h-4.9l-3.9-10h-13.8l-3.6,10h-4.6l12.7-33h4.7L1020.3,288.8
			L1020.3,288.8z M1010.1,275.3c-2.7-7.1-4.2-11.2-4.6-12.2c-0.3-1-0.7-2.3-1.2-3.9h-0.1c-0.4,2.2-1,4.3-1.7,6.2l-3.7,9.9H1010.1
			L1010.1,275.3z M1049.7,288.8h-4.5l-17.2-25.9h-0.1v25.9h-4.1v-33h4.5l17.2,25.9h0.1v-25.9h4.2V288.8L1049.7,288.8z M1086.1,284.2
			c-4.2,3.5-8.7,5.2-13.6,5.2c-5.1,0-9.1-1.5-12.2-4.6c-3.1-3.1-4.6-7.2-4.6-12.3c0-3.1,0.6-6,1.9-8.7c1.3-2.7,3.1-4.8,5.6-6.3
			c2.5-1.5,5.5-2.2,9.1-2.2c3.7,0,6.7,0.8,8.9,2.4c2.2,1.6,3.8,4.1,4.5,7.3l-3.9,1.1c-0.6-2.4-1.7-4.2-3.3-5.3
			c-1.6-1.2-3.7-1.8-6.2-1.8c-4,0-7,1.2-9,3.6c-2,2.4-3,5.6-3,9.5c0,2.9,0.5,5.4,1.5,7.3c1,2,2.4,3.4,4.4,4.4c1.9,1,4,1.5,6.3,1.5
			c3.5,0,6.7-1.1,9.6-3.4v-6.1h-9.7V272h14V284.2z"/>
	</g>
	<g id="XMLID_111_">
		<rect id="XMLID_61_" x="287.8" y="47.2" class="st4" width="2.9" height="241.5"/>
	</g>
</g>
</svg>
